# xmcd
#
# Track frame offsets:
#	150
#	19903
#	42042
#	65537
#	83952
#	103668
#	123437
#	139603
#	156958
#	175238
#
# Disc length: 2641 seconds
#
# Revision: 0
# Processed by: cddbd v1.5.2PL0 Copyright (c) Steve Scherf et al.
# Submitted via: audiograbber 1.83.01
#
DISCID=810a4f0a
DTITLE=Tommy Funderburk - Anything For You
DYEAR=2005
DGENRE=AOR
TTITLE0=Learning How To Love
TTITLE1=Remember  Our Love
TTITLE2=Anything For You
TTITLE3=Only You Can Give Me
TTITLE4=To Say You Love Me
TTITLE5=You Got The Love
TTITLE6=Skin
TTITLE7=The Garden
TTITLE8=Second Chance
TTITLE9=Say A Little Prayer
EXTD=
EXTT0=
EXTT1=
EXTT2=
EXTT3=
EXTT4=
EXTT5=
EXTT6=
EXTT7=
EXTT8=
EXTT9=
PLAYORDER=
